<?xml version="1.0" standalone="no"?>
<!DOCTYPE svg PUBLIC "-//W3C//DTD SVG 20010904//EN"
 "http://www.w3.org/TR/2001/REC-SVG-20010904/DTD/svg10.dtd">
<svg version="1.0" xmlns="http://www.w3.org/2000/svg"
 width="116.000000pt" height="116.000000pt" viewBox="0 0 116.000000 116.000000"
 preserveAspectRatio="xMidYMid meet">
<metadata>
Created by potrace 1.11, written by Peter Selinger 2001-2013
</metadata>
<g transform="translate(0.000000,116.000000) scale(0.100000,-0.100000)"
fill="#000000" stroke="none">
<path d="M453 1015 c-7 -8 -13 -21 -13 -30 0 -8 -4 -15 -10 -15 -5 0 -10 -9
-10 -20 0 -11 -4 -20 -8 -20 -4 0 -14 9 -22 20 -8 12 -26 20 -42 20 -21 0 -28
-5 -28 -20 0 -11 5 -20 10 -20 6 0 10 -7 10 -15 0 -20 45 -65 65 -65 8 0 15
-9 15 -20 0 -11 5 -20 10 -20 6 0 10 -27 10 -60 0 -53 -2 -60 -20 -60 -11 0
-20 5 -20 10 0 6 -9 10 -20 10 -18 0 -20 7 -20 60 0 33 -4 60 -10 60 -5 0 -10
7 -10 15 0 20 -45 65 -65 65 -10 0 -15 -10 -15 -30 0 -16 5 -30 10 -30 6 0 10
-9 10 -20 0 -11 5 -20 10 -20 6 0 10 -18 10 -40 0 -50 -20 -53 -60 -10 -35 37
-60 39 -60 5 0 -29 40 -75 65 -75 8 0 15 -4 15 -10 0 -5 9 -10 20 -10 11 0 20
-4 20 -10 0 -5 21 -10 46 -10 27 0 51 -6 60 -15 13 -13 12 -18 -10 -40 -33
-33 -96 -36 -96 -5 0 13 -7 20 -20 20 -11 0 -20 5 -20 10 0 6 -9 10 -20 10
-11 0 -20 5 -20 10 0 15 -49 12 -66 -4 -26 -27 -17 -46 22 -46 31 0 64 -18 64
-34 0 -3 -21 -6 -46 -6 -55 0 -84 -21 -60 -45 17 -18 186 -22 186 -5 0 6 14
10 30 10 23 0 30 -4 30 -20 0 -16 7 -20 30 -20 29 0 30 1 30 50 0 43 3 50 20
50 17 0 20 -7 20 -40 0 -22 -4 -40 -10 -40 -5 0 -10 -13 -10 -30 0 -27 -3 -30
-30 -30 -16 0 -30 5 -30 10 0 6 -9 10 -20 10 -11 0 -20 5 -20 10 0 6 -18 10
-40 10 -22 0 -40 -4 -40 -10 0 -5 -16 -10 -35 -10 -25 0 -44 -8 -60 -25 -35
-34 -32 -55 5 -55 17 0 30 5 30 10 0 6 9 10 20 10 11 0 20 5 20 10 0 6 18 10
40 10 22 0 40 -3 40 -6 0 -14 -31 -34 -54 -34 -29 0 -35 -23 -12 -46 17 -16
46 -19 46 -4 0 6 9 10 20 10 11 0 20 5 20 10 0 6 9 10 20 10 11 0 20 5 20 10
0 6 14 10 30 10 28 0 30 -2 30 -40 l0 -40 -80 0 c-47 0 -80 -4 -80 -10 0 -5
-9 -10 -20 -10 -13 0 -20 -7 -20 -20 0 -18 7 -20 60 -20 l60 0 0 -40 c0 -30 4
-40 16 -40 18 0 44 23 44 40 0 15 25 40 40 40 15 0 40 -25 40 -40 0 -7 14 -25
30 -40 16 -15 30 -35 30 -44 0 -11 9 -16 30 -16 23 0 30 4 30 20 0 11 -4 20
-10 20 -5 0 -10 8 -10 18 0 10 -9 24 -20 32 -11 8 -20 20 -20 28 0 18 25 42
44 42 9 0 16 5 16 10 0 6 9 10 20 10 13 0 20 -7 20 -20 0 -11 5 -20 10 -20 6
0 10 -9 10 -20 0 -13 7 -20 20 -20 11 0 20 -4 20 -10 0 -5 18 -10 40 -10 30 0
40 4 40 16 0 18 -23 44 -40 44 -12 0 -40 24 -40 34 0 3 36 6 80 6 47 0 80 4
80 10 0 6 7 10 15 10 9 0 27 11 41 25 22 22 23 27 10 40 -20 20 -39 19 -56 -5
-10 -14 -26 -20 -52 -20 -21 0 -38 5 -38 10 0 6 9 10 20 10 11 0 20 5 20 10 0
6 9 10 20 10 11 0 20 5 20 10 0 6 7 10 16 10 18 0 44 23 44 40 0 6 -7 18 -15
27 -14 14 -18 13 -34 -6 -10 -12 -25 -21 -34 -21 -8 0 -17 -6 -19 -12 -6 -17
-38 14 -38 36 0 21 -27 20 -48 -1 -12 -12 -13 -18 -4 -21 14 -4 16 -42 2 -42
-5 0 -10 -13 -10 -30 l0 -30 -60 0 c-33 0 -60 4 -60 10 0 6 7 10 16 10 20 0
44 24 44 44 0 9 5 16 10 16 6 0 10 14 10 30 0 27 -3 30 -30 30 -27 0 -30 -3
-30 -30 0 -35 -10 -38 -30 -10 -19 26 -50 26 -50 0 0 -11 -4 -20 -10 -20 -5 0
-10 -18 -10 -40 0 -22 5 -40 10 -40 15 0 12 -29 -5 -46 -13 -14 -17 -14 -30 0
-11 10 -15 37 -15 96 0 79 1 81 35 115 19 19 41 35 49 35 8 0 17 6 20 13 5 10
7 10 12 0 3 -7 19 -13 35 -13 16 0 29 -4 29 -10 0 -6 30 -10 70 -10 40 0 70 4
70 10 0 6 9 10 20 10 11 0 20 -4 20 -10 0 -5 9 -10 20 -10 11 0 20 -4 20 -10
0 -6 27 -10 60 -10 53 0 60 2 60 20 0 16 -7 20 -36 20 -19 0 -42 7 -50 15 -14
13 -14 17 0 30 18 18 43 20 48 3 3 -9 9 -8 21 4 23 23 21 48 -3 48 -11 0 -20
5 -20 10 0 6 -13 10 -30 10 -16 0 -30 -4 -30 -10 0 -5 -9 -10 -20 -10 -11 0
-20 -4 -20 -10 0 -5 -8 -10 -18 -10 -10 0 -24 -9 -32 -20 -12 -16 -26 -20 -72
-20 -51 0 -58 2 -58 20 0 13 7 20 20 20 11 0 20 5 20 10 0 6 27 10 60 10 33 0
60 4 60 10 0 6 13 10 28 10 16 0 34 8 42 20 8 11 22 20 32 20 11 0 18 7 18 20
0 11 5 20 10 20 6 0 10 9 10 20 0 32 -46 26 -80 -10 -15 -16 -35 -30 -44 -30
-9 0 -16 -4 -16 -10 0 -5 -18 -10 -40 -10 -33 0 -40 3 -40 20 0 15 7 20 28 20
16 0 34 8 42 20 8 11 22 20 32 20 11 0 18 7 18 20 0 11 5 20 10 20 6 0 10 18
10 40 0 30 -4 40 -16 40 -18 0 -44 -23 -44 -40 0 -11 -44 -60 -55 -60 -3 0 -5
27 -5 60 0 33 4 60 10 60 6 0 10 14 10 30 0 21 -5 30 -16 30 -18 0 -44 -23
-44 -40 0 -12 -24 -40 -34 -40 -3 0 -6 9 -6 20 0 11 -4 20 -10 20 -5 0 -10 23
-10 50 0 53 -16 66 -46 36 -16 -17 -19 -66 -4 -66 6 0 10 -4 10 -10 0 -5 -18
-10 -40 -10 -30 0 -40 -4 -40 -16 0 -26 26 -44 64 -44 26 0 36 -4 36 -16 0
-20 24 -44 44 -44 12 0 16 -10 16 -40 0 -22 -4 -40 -10 -40 -5 0 -10 -7 -10
-15 0 -9 -16 -31 -35 -50 -19 -19 -41 -35 -50 -35 -23 0 -19 53 5 70 11 8 20
22 20 32 0 10 5 18 10 18 6 0 10 14 10 30 0 36 -24 40 -51 9 -16 -19 -20 -20
-34 -6 -8 9 -15 23 -15 31 0 9 -8 16 -20 16 -11 0 -20 5 -20 10 0 6 -4 10 -10
10 -5 0 -10 -18 -10 -40 0 -22 5 -40 10 -40 6 0 10 -9 10 -20 0 -11 5 -20 10
-20 6 0 10 -27 10 -60 0 -33 -4 -60 -10 -60 -5 0 -10 -9 -10 -20 0 -13 -7 -20
-20 -20 -16 0 -20 7 -20 30 0 17 -4 30 -10 30 -6 0 -10 37 -10 90 0 53 -4 90
-10 90 -22 0 -8 34 30 70 22 21 40 45 40 52 0 7 9 20 20 28 12 8 20 26 20 42
0 24 -4 28 -30 28 -20 0 -30 -5 -30 -15 0 -20 -49 -70 -58 -60 -4 4 -1 10 6
12 16 6 15 31 -2 49 -17 17 -18 17 -33 -1z"/>
</g>
</svg>
